<?xml version="1.0" encoding="utf-8"?>
<svg xmlns="http://www.w3.org/2000/svg" width="107" height="24" viewBox="0 0 107 24" fill="none">
<path id="yamaha-logo" fill-rule="evenodd" clip-rule="evenodd" d="M0 11.5575C0 5.17423 5.17423 0 11.5566 0C17.9407 0 23.1141 5.17423 23.1141 11.5575C23.1141 17.9399 17.9391 23.1149 11.5566 23.1149C5.17423 23.1149 0 17.9399 0 11.5575ZM1.30291 11.5574C1.30291 17.2196 5.89369 21.8104 11.5559 21.8104C17.2189 21.8104 21.8089 17.2196 21.8089 11.5574C21.8089 5.89438 17.2189 1.30442 11.5559 1.30442C5.89288 1.30442 1.30291 5.89438 1.30291 11.5574ZM18.2796 14.252L19.9572 16.212C20.0072 16.2693 20.016 16.3518 19.979 16.4183C19.9404 16.4842 19.8647 16.5188 19.7896 16.5049L17.2543 16.0299C17.1265 16.0048 17.0312 15.8975 17.0213 15.7677C16.9994 15.4913 16.8503 15.2407 16.6177 15.0896C16.3852 14.9385 16.0956 14.9041 15.8341 14.9965C15.2312 15.2093 14.5426 15.1664 13.9454 14.8209L13.1936 14.388V19.3202H12.1359V13.777L11.5589 13.4444L10.982 13.7778V19.321H9.92429V14.388L9.17332 14.8209C8.57611 15.1664 7.88745 15.2093 7.28458 14.9965C7.02288 14.9045 6.7333 14.9391 6.5007 15.0903C6.2681 15.2415 6.11882 15.492 6.09662 15.7685C6.08662 15.8982 5.99122 16.0051 5.86356 16.0299L3.32824 16.5049C3.25307 16.5196 3.17684 16.4852 3.13807 16.4191C3.09949 16.3523 3.10796 16.2682 3.15911 16.2104L4.83746 14.252C4.92297 14.1546 5.06276 14.1259 5.17976 14.1816C5.43028 14.3006 5.72181 14.2966 5.96897 14.1708C6.21613 14.045 6.39093 13.8116 6.44217 13.5391C6.56296 12.8875 6.96347 12.3216 7.53787 11.991L8.29045 11.5573L4.01771 9.09154L4.54613 8.17468L9.3465 10.9463L9.92348 10.6145V9.9477L5.12312 7.17527L5.65074 6.25922L9.92348 8.72657V7.85908C9.92348 7.16961 10.231 6.55136 10.7165 6.13541C10.927 5.9548 11.0417 5.68677 11.0271 5.40983C11.0126 5.13289 10.8703 4.87839 10.6421 4.72087H10.6413C10.5341 4.64726 10.4891 4.51128 10.5312 4.38828L11.389 1.95573C11.413 1.88267 11.4812 1.83329 11.5581 1.83329C11.635 1.83329 11.7032 1.88267 11.7273 1.95573L12.585 4.38909C12.6272 4.51203 12.5817 4.64794 12.4742 4.72087C12.2454 4.87799 12.1027 5.1326 12.0881 5.40978C12.0735 5.68696 12.1887 5.95515 12.3997 6.13541C12.8853 6.55136 13.1928 7.1688 13.1928 7.85908V8.72657L17.4647 6.25922L17.9931 7.17527L13.1928 9.9477V10.6145L13.7698 10.9463L18.5709 8.17468L19.1002 9.09154L14.8274 11.5573L15.5784 11.991C16.1529 12.3216 16.5537 12.8874 16.6749 13.5391H16.6741C16.725 13.8118 16.8998 14.0454 17.1471 14.1712C17.3943 14.2971 17.686 14.3009 17.9365 14.1816C18.0537 14.1255 18.194 14.1542 18.2796 14.252ZM8.51228 13.9809L9.92196 13.1668H9.92277V12.5L9.34579 12.1666L7.9361 12.9807C7.6599 13.1398 7.56498 13.4927 7.72408 13.7689C7.88319 14.0451 8.23608 14.14 8.51228 13.9809ZM11.5568 7.13239C11.2381 7.13239 10.9798 7.39072 10.9798 7.70938V9.33674L11.5568 9.66934L12.1338 9.33593V7.70938C12.1338 7.39072 11.8754 7.13239 11.5568 7.13239ZM11.5558 12.3231L12.2194 11.9403V11.174L11.5558 10.7904L10.8922 11.174V11.9403L11.5558 12.3231ZM14.6 13.9812C14.8763 14.1401 15.229 14.0457 15.389 13.77C15.5477 13.4937 15.4529 13.1411 15.177 12.9818L13.7673 12.1677L13.1903 12.5011V13.1671L14.6 13.9812ZM88.5048 9.20996H84.648V1.49797H81.1246V21.6163H84.648V12.7819H88.5048V21.6163H92.1059V1.49878H88.5048V9.20996ZM29.597 13.8339L25.6868 1.49797H29.2013L31.6104 9.33619L34.2712 1.49878H37.5655L33.5113 13.435V21.6163H29.597V13.8339ZM59.6686 1.49797L57.9814 11.068L56.0239 1.49797H50.5235V21.6163H53.6771V6.45128L56.3694 19.6345H59.315L61.7022 6.23684V21.6163H65.4004V1.49878L59.6686 1.49797ZM102.842 1.49797H97.3934L93.717 21.6163H96.9774L97.7567 16.9349H101.813L102.569 21.6163H106.162L102.842 1.49878V1.49797ZM98.3166 13.5814L99.8161 4.58353L101.271 13.5814H98.3174H98.3166ZM67.0115 21.6163L70.6895 1.49797V1.49878H76.1373L79.4567 21.6163H75.8654L75.1087 16.9349H71.0528L70.2728 21.6163H67.0115ZM73.1105 4.58353L71.6118 13.5814H74.5655L73.1105 4.58353ZM40.0855 1.49797L36.4083 21.6163H39.6695L40.4504 16.9349H44.5047L45.2621 21.6163H48.8535L45.534 1.49878H40.0855V1.49797ZM41.0078 13.5814L42.5073 4.58353L43.9623 13.5814H41.0086H41.0078Z" fill="#007BFF"/>
</svg>