<?xml version="1.0" encoding="utf-8"?>
<svg xmlns="http://www.w3.org/2000/svg" width="114" height="25" viewBox="0 0 114 25" fill="none">
<path id="unilever" fill-rule="evenodd" clip-rule="evenodd" d="M53.3386 0C53.2787 0 53.2188 0.00161846 53.1581 0.00566463C50.5038 0.167511 48.0794 6.08543 48.467 12.3772C48.5431 13.6072 49.0796 16.9858 49.833 18.6568C48.5156 20.7649 46.8429 21.0805 45.8718 21.0805C44.5058 21.0805 42.4309 20.3028 42.4309 17.1258C43.4085 14.461 42.7579 11.4142 41.3935 11.4142C39.4465 11.4142 38.7983 14.8454 38.7327 17.252C38.0854 18.6827 37.3692 19.8488 36.3941 19.8488C34.8234 19.8488 34.0236 17.2146 33.2851 14.7827C32.652 12.6976 32.0641 10.7612 31.0742 10.7612C30.0574 10.7612 28.6152 12.7108 27.4063 14.345C26.5341 15.5242 25.7834 16.5391 25.4015 16.5391C24.8852 16.5391 24.4263 14.902 24.1002 13.2973L24.0833 13.2128C23.9978 12.7829 23.9025 12.3042 23.6292 12.2777C23.0523 12.2243 22.3304 12.7219 22.0642 13.4155C21.8932 13.8526 21.6377 14.8792 21.3403 16.0741L21.3403 16.0743L21.3403 16.0743C21.1675 16.7683 20.9807 17.519 20.788 18.2441C20.7057 18.5421 20.5919 18.9272 20.4671 19.3494L20.4671 19.3495L20.467 19.3496C20.1159 20.5376 19.6778 22.0197 19.6098 22.6812C19.5418 23.3285 19.8145 23.8141 20.4643 23.8821C21.2617 23.9648 23.1154 22.2224 25.0142 20.4375C26.9599 18.6085 28.953 16.7349 29.9056 16.7349C31.0692 16.7349 31.8057 18.423 32.5655 20.1647C33.3751 22.0205 34.2112 23.9371 35.6188 23.9371C36.5322 23.9371 37.4046 22.6201 38.1666 21.4697C38.7575 20.5776 39.282 19.7857 39.7079 19.7857C40.1182 19.7857 40.4477 20.3627 40.8611 21.0865C41.5565 22.3041 42.4892 23.9371 44.4427 23.9371C46.9607 23.9371 48.392 22.8804 49.4051 22.1325C49.96 21.7228 50.3894 21.4058 50.8033 21.4058C51.1821 21.4058 51.5708 21.7791 52.0457 22.2353C52.7914 22.9514 53.7495 23.8715 55.2152 23.8715C56.7074 23.8715 58.0095 23.4184 59.5656 22.3777C60.4712 23.4184 61.5717 23.9371 62.6164 23.9371C67.0403 23.9371 69.2786 21.192 70.6692 19.4866C71.2957 18.7181 71.7502 18.1608 72.1549 18.1608C72.589 18.1608 72.8259 18.9525 73.1232 19.9463C73.6244 21.6217 74.2975 23.8715 76.3774 23.8715C80.7861 23.8715 83.7746 16.1474 83.7746 11.9936C83.7746 10.8931 83.4469 9.98754 82.5389 9.98754C81.0435 9.98754 79.9397 11.7395 79.9397 13.8136C79.9397 14.8411 80.0753 15.3466 80.1984 15.8054C80.3008 16.1868 80.3945 16.5359 80.3945 17.1258C80.3945 18.8737 79.4865 21.146 78.3795 21.146C76.9231 21.146 76.0801 17.8968 75.3432 15.0566C74.7712 12.8516 74.2631 10.8931 73.5815 10.8931C72.676 10.8931 72.2188 11.9936 71.9606 12.7745C70.5267 16.8652 68.5886 21.3443 64.8871 21.3443C64.1702 21.3443 63.3302 21.0158 62.8754 20.5642C65.4682 18.9433 67.2218 17.252 67.2218 15.178C67.2218 13.4227 66.0549 10.7612 64.0415 10.7612C61.5118 10.7612 58.5897 14.5913 58.5897 19.1327C58.5897 19.9799 58.7216 20.565 58.8519 21.0158C58.6577 21.2788 57.8751 21.6025 57.2253 21.6025C55.4741 21.6025 53.6186 19.7396 53.3977 18.6455C53.6105 18.186 53.8579 17.7146 54.1209 17.2136L54.121 17.2135C55.4735 14.6364 57.2381 11.2741 56.8377 4.71054C56.6637 1.82239 55.1974 0.00404616 53.3386 0ZM42.1719 0.899954C40.9403 0.899954 39.7806 2.19311 39.9036 3.81643C39.9821 4.88704 40.6141 5.76829 41.8539 5.76829C43.2765 5.76829 44.314 4.14578 44.1829 2.65032C44.0922 1.61127 43.2765 0.899954 42.1719 0.899954ZM15.9913 2.26188C16.1817 2.20462 16.3792 2.17465 16.578 2.17286C17.3306 2.18257 17.7004 2.77817 18.067 3.88682C18.6521 5.96169 18.7168 8.68476 18.521 12.578C18.2653 17.9011 15.6029 24.3272 8.985 24.1929C3.27182 24.0691 0.742966 20.3676 0.479966 14.7232C0.356963 12.0625 0.546323 9.40174 1.6485 5.63881C2.23276 3.62544 2.75553 2.90765 4.56902 2.52164C5.99569 2.26107 5.86703 3.75087 5.54333 5.51014C4.83283 9.40254 4.50347 11.2816 4.76647 15.6959C5.02057 20.3668 7.16665 22.186 9.5021 22.186C13.0069 22.254 14.5622 19.3326 15.2145 15.1117C15.7308 11.7396 15.3423 10.1155 15.0154 9.07966C14.9678 8.92891 14.8972 8.73013 14.8159 8.50137L14.8159 8.50136L14.8159 8.50132C14.579 7.83486 14.2517 6.91397 14.1414 6.18504C13.8169 4.01629 14.9498 2.58881 15.9913 2.26188ZM53.3015 3.89225C54.2135 3.88173 54.6286 4.70471 54.737 6.46156C54.9855 10.481 53.2707 15.4626 52.5553 15.5055C52.1677 15.5298 51.7542 15.1009 51.5851 12.3139C51.3213 8.04037 51.9185 3.97398 53.2116 3.89548C53.2416 3.89305 53.2715 3.89225 53.3006 3.89225H53.3015ZM102.767 16.9975C103.855 14.3301 105.76 9.6619 110.118 9.6619V9.66109C112.192 9.66109 113.553 10.8248 113.553 12.3186C113.553 13.3617 112.777 14.2697 111.676 14.2697C110.256 14.2697 109.915 13.6212 109.647 13.1127C109.475 12.7849 109.333 12.5152 108.952 12.5152C106.626 12.5152 104.874 16.5162 103.139 20.4765C102.936 20.941 102.732 21.405 102.528 21.8619C101.748 23.6122 101.293 23.9368 100.643 23.9368C99.456 23.9368 98.931 21.5522 98.4804 19.506C98.3135 18.7481 98.1569 18.0365 97.9806 17.5098C96.6194 20.4303 94.0242 23.9368 89.7385 23.9368C87.2736 23.9368 84.816 22.6379 84.816 18.6824C84.816 14.2697 87.6645 11.087 90.5842 11.087C92.7934 11.087 94.2848 13.3617 94.2848 14.9818C94.2848 17.9669 91.5931 18.9632 89.9043 19.5883C89.1324 19.874 88.57 20.0821 88.57 20.3672C88.57 21.2129 90.0639 21.539 90.9063 21.539C94.5438 21.539 96.9828 16.631 97.7872 13.2945C97.9255 12.7159 98.4346 11.4778 99.4736 11.4778C100.011 11.4778 100.192 13.0244 100.388 14.697C100.619 16.6666 100.87 18.8111 101.748 18.8111C102.026 18.8111 102.331 18.0643 102.767 16.9975ZM89.7385 13.6881C91.1028 13.6881 91.4945 15.3025 91.17 16.28C90.8422 17.2519 89.6778 18.3589 87.8602 18.6826C87.4694 17.7075 87.2735 13.6881 89.7385 13.6881ZM64.3675 15.8874C64.3675 14.7869 63.7824 13.8789 63.0727 13.8789C62.4836 13.8789 61.1241 14.5247 61.1241 16.602C61.1241 18.231 61.7035 19.0022 61.9673 19.3323C63.8455 18.7481 64.3675 17.1863 64.3675 15.8874Z" fill="#004A99"/>
</svg>