<?xml version="1.0" encoding="utf-8"?>
<svg xmlns="http://www.w3.org/2000/svg" width="26" height="29" viewBox="0 0 26 29" fill="none">
<g clip-path="url(#clip0_16032_30785)">
<path d="M3.72271 5.40023C3.53277 5.49293 3.14918 5.60711 2.58027 5.60711C1.0049 5.60711 0.10083 4.52357 0.10083 3.14114C0.10083 1.49539 1.25282 0.624512 2.68491 0.624512C3.24011 0.624512 3.53346 0.730764 3.7224 0.831164L3.5474 1.81538C3.33705 1.72222 3.11377 1.63737 2.72818 1.63737C2.04616 1.63737 1.32273 2.04297 1.32273 3.12297C1.32273 4.08909 1.89957 4.6001 2.73388 4.6001C3.06433 4.6001 3.28862 4.53528 3.54747 4.41647L3.72271 5.40023Z" fill="#0056A2"/>
<path d="M6.33869 1.84505C5.9143 1.84505 5.50361 2.03746 5.29449 2.34651H5.28163V0.641785L4.21411 1.01136V5.45892H5.28163V3.38139C5.28163 3.08142 5.47666 2.75874 5.8507 2.75874C6.25084 2.75874 6.40498 3.07372 6.40498 3.53191V5.459H7.47343V3.38455C7.47343 2.32557 7.01924 1.84505 6.33869 1.84505Z" fill="#0056A2"/>
<path d="M9.08395 4.05588C9.12322 4.50638 9.49687 4.74575 10.0743 4.75091C10.4222 4.7536 10.8267 4.65243 11.0962 4.49367L11.2573 5.32452C10.8517 5.52824 10.3883 5.60716 9.91665 5.60716C8.64593 5.60716 7.96484 4.84292 7.96484 3.67207C7.96484 2.53948 8.69721 1.80865 9.79469 1.80865C10.9257 1.80865 11.4327 2.64142 11.4327 3.68485C11.4327 3.7948 11.4192 3.97388 11.407 4.05588H9.08395ZM10.3665 3.29618C10.3665 3.03456 10.2389 2.57706 9.74464 2.57706C9.31132 2.57706 9.10698 2.95009 9.07664 3.29618H10.3665Z" fill="#0056A2"/>
<path d="M12.6876 5.45891L11.5081 1.95721H12.6858L13.3267 4.43419H13.3482L13.9891 1.95721H15.1674L13.9879 5.45891H12.6876Z" fill="#0056A2"/>
<path d="M15.47 3.10882C15.47 2.59365 15.4538 2.25757 15.4319 1.95714H16.4376L16.4681 2.60805H16.4951C16.6711 2.09288 17.0089 1.89716 17.3563 1.87745C17.5214 1.86783 17.6108 1.87953 17.7131 1.89932V2.92319C17.6152 2.90401 17.421 2.88146 17.2845 2.89401C16.8737 2.93181 16.6251 3.23062 16.5553 3.57463C16.5413 3.64593 16.5341 3.72508 16.5341 3.8177V5.45883H15.4704V3.10882H15.47Z" fill="#0056A2"/>
<path d="M21.4645 3.70782C21.4645 4.8555 20.773 5.60704 19.6525 5.60704C18.5318 5.60704 17.8398 4.8555 17.8398 3.70782C17.8398 2.56 18.5318 1.80853 19.6525 1.80853C20.773 1.80853 21.4645 2.56007 21.4645 3.70782ZM20.3577 3.70782C20.3577 3.13799 20.1618 2.64199 19.6525 2.64199C19.1425 2.64199 18.9476 3.13791 18.9476 3.70782C18.9476 4.2782 19.1425 4.77342 19.6525 4.77342C20.162 4.77342 20.3577 4.2782 20.3577 3.70782Z" fill="#0056A2"/>
<path d="M21.9395 3.07363C21.9395 2.63661 21.9234 2.26349 21.9009 1.95721H22.9066L22.9296 2.44713H22.9512C23.0904 2.2193 23.459 1.84503 24.0341 1.84503C24.7379 1.84503 25.1973 2.32555 25.1973 3.35635V5.45898H24.1307V3.51727C24.1307 3.0667 23.9761 2.75864 23.5901 2.75864C23.2942 2.75864 23.1104 2.96676 23.0422 3.16625C23.0169 3.23932 23.0066 3.33856 23.0066 3.43881V5.45891H21.9395V3.07363Z" fill="#0056A2"/>
<path d="M0.13916 14.7417V6.39014L12.6697 10.5661L0.13916 14.7417Z" fill="url(#paint0_linear_16032_30785)"/>
<path d="M0.142334 14.7423L12.6697 18.9178L25.1963 14.7423V6.39111L12.6697 10.5661L0.142334 14.7423Z" fill="url(#paint1_linear_16032_30785)"/>
<path d="M0.13975 24.4495L0.138672 16.0952L12.6683 20.271L0.13975 24.4495Z" fill="url(#paint2_linear_16032_30785)"/>
<path d="M25.1967 16.0952L12.6659 20.2697L0.141113 24.4479L12.6683 28.6245L25.1967 24.4466V16.0952Z" fill="url(#paint3_linear_16032_30785)"/>
</g>
<defs>
<linearGradient id="paint0_linear_16032_30785" x1="12.6697" y1="10.5659" x2="4.96127" y2="-0.99957" gradientUnits="userSpaceOnUse">
<stop stop-color="#06549B"/>
<stop offset="0.55" stop-color="#2FA1D3"/>
<stop offset="0.9" stop-color="#2FA1D3"/>
</linearGradient>
<linearGradient id="paint1_linear_16032_30785" x1="0.142334" y1="13.9071" x2="8.67215" y2="-9.12385" gradientUnits="userSpaceOnUse">
<stop stop-color="#1371B1"/>
<stop offset="0.05" stop-color="#2FA1D3"/>
<stop offset="0.45" stop-color="#2FA1D3"/>
<stop offset="0.6" stop-color="#06569C"/>
</linearGradient>
<linearGradient id="paint2_linear_16032_30785" x1="12.6683" y1="20.2723" x2="3.25261" y2="11.7994" gradientUnits="userSpaceOnUse">
<stop stop-color="#9D1A36"/>
<stop offset="0.4" stop-color="#9D1A36"/>
<stop offset="0.6" stop-color="#E6192F"/>
</linearGradient>
<linearGradient id="paint3_linear_16032_30785" x1="0.141113" y1="23.6128" x2="8.67365" y2="0.577809" gradientUnits="userSpaceOnUse">
<stop stop-color="#A21C38"/>
<stop offset="0.13" stop-color="#E6192F"/>
<stop offset="0.45" stop-color="#E6192F"/>
<stop offset="0.6" stop-color="#A71C37"/>
</linearGradient>
<clipPath id="clip0_16032_30785">
<rect width="25.0962" height="28" fill="white" transform="translate(0.10083 0.624512)"/>
</clipPath>
</defs>
</svg>