<?xml version="1.0" encoding="UTF-8"?>
<svg xmlns="http://www.w3.org/2000/svg" viewBox="0 0 64 64" width="64" height="64" role="img" aria-label="Masterdoc">
  <path fill="#000000" fill-rule="evenodd" d="M46.74,27.21L57.88,34.45L56.73,40.03L45.34,39.89L46.74,36.79L51.50,49.19L47.28,53.03L38.16,46.23L41.11,44.54L37.67,57.37L32.00,58.00L28.62,47.13L32.00,47.50L21.67,55.86L16.72,53.03L20.37,42.25L22.89,44.54L9.62,45.24L7.27,40.03L16.57,33.46L17.26,36.79L6.12,29.55L7.27,23.97L18.66,24.11L17.26,27.21L12.50,14.81L16.72,10.97L25.84,17.77L22.89,19.46L26.33,6.63L32.00,6.00L35.38,16.87L32.00,16.50L42.33,8.14L47.28,10.97L43.63,21.75L41.11,19.46L54.38,18.76L56.73,23.97L47.43,30.54ZM41.00,32.00A9.0,9.0 0 1 0 23.00,32.00A9.0,9.0 0 1 0 41.00,32.00Z"/>
</svg>
